<?xml version="1.0" encoding="UTF-8"?>
<svg width="10px" height="14px" viewBox="0 0 10 14" version="1.1" xmlns="http://www.w3.org/2000/svg" xmlns:xlink="http://www.w3.org/1999/xlink">
    <!-- Generator: Sketch 43.2 (39069) - http://www.bohemiancoding.com/sketch -->
    <title>address</title>
    <desc>Created with Sketch.</desc>
    <defs></defs>
    <g id="Form-Editor" stroke="none" stroke-width="1" fill="none" fill-rule="evenodd">
        <g id="home-mockup" transform="translate(-11.000000, -414.000000)" fill-rule="nonzero" fill="#696969">
            <path d="M18,418.666667 C18,418.022667 17.7721111,417.472778 17.3163333,417.017 C16.8605556,416.561222 16.3106667,416.333333 15.6666667,416.333333 C15.0226667,416.333333 14.4727778,416.561222 14.017,417.017 C13.5612222,417.472778 13.3333333,418.022667 13.3333333,418.666667 C13.3333333,419.310667 13.5612222,419.860556 14.017,420.316333 C14.4727778,420.772111 15.0226667,421 15.6666667,421 C16.3106667,421 16.8605556,420.772111 17.3163333,420.316333 C17.7721111,419.860556 18,419.310667 18,418.666667 Z M20.3333333,418.666667 C20.3333333,419.329333 20.233,419.873 20.0323333,420.297667 L16.7143333,427.3525 C16.6171111,427.553167 16.4728333,427.711056 16.2815,427.826167 C16.0901667,427.941278 15.8852222,427.998833 15.6666667,427.998833 C15.4481111,427.998833 15.2431667,427.941278 15.0518333,427.826167 C14.8605,427.711056 14.7193333,427.553167 14.6283333,427.3525 L11.301,420.297667 C11.1003333,419.872222 11,419.328556 11,418.666667 C11,417.378667 11.4557778,416.278889 12.3673333,415.367333 C13.2788889,414.455778 14.3786667,414 15.6666667,414 C16.9546667,414 18.0544444,414.455778 18.966,415.367333 C19.8775556,416.278889 20.3333333,417.378667 20.3333333,418.666667 L20.3333333,418.666667 Z" id="address"></path>
        </g>
    </g>
</svg>
