<?xml version="1.0" encoding="UTF-8"?>
<svg width="18px" height="16px" viewBox="0 0 18 16" version="1.1" xmlns="http://www.w3.org/2000/svg" xmlns:xlink="http://www.w3.org/1999/xlink">
    <!-- Generator: Sketch 43.2 (39069) - http://www.bohemiancoding.com/sketch -->
    <title>barcode</title>
    <desc>Created with Sketch.</desc>
    <defs></defs>
    <g id="Form-Editor" stroke="none" stroke-width="1" fill="none" fill-rule="evenodd">
        <g id="home-mockup" transform="translate(-197.000000, -30.000000)" fill-rule="nonzero" fill="#696969">
            <path d="M198.875,45.75 L197.375,45.75 C197.167893,45.75 197,45.5821068 197,45.375 L197,30.375 C197,30.1678932 197.167893,30 197.375,30 L198.875,30 C199.082107,30 199.25,30.1678932 199.25,30.375 L199.25,45.375 C199.25,45.5821068 199.082107,45.75 198.875,45.75 Z M209.75,45.375 L209.75,30.375 C209.75,30.1678932 209.582107,30 209.375,30 L208.625,30 C208.417893,30 208.25,30.1678932 208.25,30.375 L208.25,45.375 C208.25,45.5821068 208.417893,45.75 208.625,45.75 L209.375,45.75 C209.582107,45.75 209.75,45.5821068 209.75,45.375 Z M215,45.375 L215,30.375 C215,30.1678932 214.832107,30 214.625,30 L213.875,30 C213.667893,30 213.5,30.1678932 213.5,30.375 L213.5,45.375 C213.5,45.5821068 213.667893,45.75 213.875,45.75 L214.625,45.75 C214.832107,45.75 215,45.5821068 215,45.375 Z M206.75,45.375 L206.75,30.375 C206.75,30.1678932 206.582107,30 206.375,30 L204.125,30 C203.917893,30 203.75,30.1678932 203.75,30.375 L203.75,45.375 C203.75,45.5821068 203.917893,45.75 204.125,45.75 L206.375,45.75 C206.582107,45.75 206.75,45.5821068 206.75,45.375 Z M202.25,45.375 L202.25,30.375 C202.25,30.1678932 202.082107,30 201.875,30 L201.125,30 C200.917893,30 200.75,30.1678932 200.75,30.375 L200.75,45.375 C200.75,45.5821068 200.917893,45.75 201.125,45.75 L201.875,45.75 C202.082107,45.75 202.25,45.5821068 202.25,45.375 Z M212,45.375 L212,30.375 C212,30.1678932 211.832107,30 211.625,30 L211.625,30 C211.417893,30 211.25,30.1678932 211.25,30.375 L211.25,45.375 C211.25,45.5821068 211.417893,45.75 211.625,45.75 L211.625,45.75 C211.832107,45.75 212,45.5821068 212,45.375 Z" id="barcode"></path>
        </g>
    </g>
</svg>
