<?xml version="1.0" encoding="UTF-8"?>
<svg width="14px" height="14px" viewBox="0 0 14 14" version="1.1" xmlns="http://www.w3.org/2000/svg" xmlns:xlink="http://www.w3.org/1999/xlink">
    <!-- Generator: Sketch 43.2 (39069) - http://www.bohemiancoding.com/sketch -->
    <title>Boolean</title>
    <desc>Created with Sketch.</desc>
    <defs></defs>
    <g id="Form-Editor" stroke="none" stroke-width="1" fill="none" fill-rule="evenodd">
        <g id="home-mockup" transform="translate(-31.000000, -640.000000)" fill="#696969">
            <g id="fields-list" transform="translate(0.000000, 92.000000)">
                <g id="dob-month-field" transform="translate(31.000000, 546.000000)">
                    <path d="M0,5.08823529 C0,6.79410626 1.38345832,8.17647059 3.09012875,8.17647059 L10.9098712,8.17647059 C12.61694,8.17647059 14,6.79412397 14,5.08823529 C14,3.38236432 12.6165416,2 10.9098712,2 L3.09012875,2 C1.38305994,2 0,3.38234662 0,5.08823529 Z M0.823529412,5.08823529 C0.823529412,3.83740282 1.83731775,2.82352941 3.08823529,2.82352941 C4.33906781,2.82352941 5.35294118,3.83731779 5.35294118,5.08823529 C5.35294118,6.33906776 4.33915284,7.35294118 3.08823529,7.35294118 C1.83740278,7.35294118 0.823529412,6.33915279 0.823529412,5.08823529 Z M0,12.9117647 C0,14.6176357 1.38345832,16 3.09012875,16 L10.9098712,16 C12.61694,16 14,14.6176534 14,12.9117647 C14,11.2058937 12.6165416,9.82352941 10.9098712,9.82352941 L3.09012875,9.82352941 C1.38305994,9.82352941 0,11.205876 0,12.9117647 Z M8.64705882,12.9117647 C8.64705882,11.6609322 9.66084721,10.6470588 10.9117647,10.6470588 C12.1625972,10.6470588 13.1764706,11.6608472 13.1764706,12.9117647 C13.1764706,14.1625972 12.1626822,15.1764706 10.9117647,15.1764706 C9.66093224,15.1764706 8.64705882,14.1626822 8.64705882,12.9117647 Z" id="boolean"></path>
                </g>
            </g>
        </g>
    </g>
</svg>
