<?xml version="1.0" encoding="UTF-8"?>
<svg width="14px" height="14px" viewBox="0 0 14 14" version="1.1" xmlns="http://www.w3.org/2000/svg" xmlns:xlink="http://www.w3.org/1999/xlink">
    <!-- Generator: Sketch 43.2 (39069) - http://www.bohemiancoding.com/sketch -->
    <title>country</title>
    <desc>Created with Sketch.</desc>
    <defs></defs>
    <g id="Form-Editor" stroke="none" stroke-width="1" fill="none" fill-rule="evenodd">
        <g id="home-mockup" transform="translate(-31.000000, -725.000000)" fill-rule="nonzero" fill="#696969">
            <path d="M44.93252,731.03904 C44.89822,730.79082 44.8516,730.54666 44.79196,730.30726 C44.62088,729.6214 44.34942,728.97488 43.99242,728.38534 C43.83786,728.12998 43.66608,727.88638 43.48128,727.65356 C42.19762,726.03852 40.21858,725 38,725 C35.78156,725 33.80224,726.03852 32.51886,727.6537 C32.33392,727.88638 32.16228,728.13012 32.00786,728.38548 C31.65086,728.97502 31.37912,729.62154 31.20818,730.3074 C31.14854,730.54666 31.10192,730.79096 31.06776,731.03918 C31.02422,731.35334 31,731.6738 31,732 C31,732.3262 31.02422,732.64666 31.06762,732.96096 C31.10192,733.20918 31.14854,733.45348 31.20804,733.69274 C31.37912,734.37874 31.65072,735.02512 32.00772,735.6148 C32.16228,735.87016 32.33392,736.11376 32.51872,736.34658 C33.80224,737.96148 35.78156,739 38,739 C40.21844,739 42.19776,737.96148 43.48128,736.3463 C43.66608,736.11362 43.83786,735.87002 43.99242,735.61452 C44.34928,735.02484 44.62088,734.3786 44.79196,733.69246 C44.8516,733.4532 44.89822,733.20904 44.93252,732.96068 C44.97578,732.64652 45,732.32606 45,732 C45,731.67394 44.97578,731.35334 44.93252,731.03904 Z M36.1165197,726.293166 C35.7690896,726.70235 35.4640813,727.223629 35.213443,727.832303 L33.6749773,727.832303 C34.3448677,727.137309 35.1798814,726.603142 36.1165197,726.293166 Z M33.0939581,728.533876 L34.9607909,728.533876 C34.7851964,729.097443 34.6522923,729.716722 34.5690594,730.376813 L32.2137033,730.376813 C32.4015143,729.708265 32.7020924,729.086838 33.0939581,728.533876 Z M31.9893773,731.999988 C31.9893773,731.686791 32.013676,731.379098 32.059991,731.07852 L34.5009964,731.07852 C34.4801882,731.379366 34.4685088,731.686522 34.4685088,731.999988 C34.4685088,732.313454 34.4801882,732.62061 34.5009964,732.921457 L32.059991,732.921457 C32.0135417,732.620879 31.9893773,732.31332 31.9893773,731.999988 Z M33.0939581,735.465966 C32.7022266,734.913004 32.4015143,734.291577 32.2137033,733.622895 L34.5689252,733.622895 C34.6521581,734.28312 34.7851964,734.902265 34.9606567,735.465966 L33.0939581,735.465966 Z M33.6751115,736.167673 L35.2135772,736.167673 C35.4640813,736.776347 35.7692238,737.297492 36.1166539,737.70681 C35.1798814,737.3967 34.3450019,736.862802 33.6751115,736.167673 Z M37.6492128,737.960402 C37.0059032,737.782659 36.4221991,737.125254 35.9830786,736.167673 L37.6492128,736.167673 L37.6492128,737.960402 Z M37.6492128,735.465966 L35.7057252,735.465966 C35.517243,734.910991 35.3718539,734.288758 35.280432,733.622895 L37.649347,733.622895 C37.6492128,734.285939 37.6492128,734.906158 37.6492128,735.465966 Z M37.6492128,731.999988 L37.6492128,732.921457 L35.2051197,732.921457 C35.1821635,732.620207 35.1699471,732.31238 35.1699471,731.999988 C35.1699471,731.687462 35.1820293,731.379769 35.2051197,731.07852 L37.6492128,731.07852 L37.6492128,731.999988 Z M37.6492128,730.376813 L35.2802978,730.376813 C35.3717197,729.71095 35.517243,729.088717 35.7055909,728.533876 L37.6492128,728.533876 L37.6492128,730.376813 Z M37.6492128,727.832303 L35.9830786,727.832303 C36.4223334,726.874454 37.0059032,726.217317 37.6492128,726.03944 L37.6492128,727.832303 Z M42.9060401,728.533876 C43.2979058,729.086838 43.5983496,729.708265 43.7862948,730.376813 L41.431073,730.376813 C41.3477058,729.716722 41.2148017,729.097443 41.0392072,728.533876 L42.9060401,728.533876 L42.9060401,728.533876 Z M42.3250209,727.832303 L40.7865552,727.832303 C40.5360511,727.223629 40.2307744,726.70235 39.8834785,726.293301 C40.8201168,726.603142 41.6551305,727.137309 42.3250209,727.832303 Z M38.3507854,726.03944 C38.9942292,726.217317 39.577799,726.874454 40.0169196,727.832169 L38.3507854,727.832169 L38.3507854,726.03944 Z M38.3507854,728.533876 L40.294273,728.533876 C40.4828894,729.088717 40.6282785,729.71095 40.7197004,730.376813 L38.3507854,730.376813 L38.3507854,728.533876 Z M38.3507854,731.07852 L40.7948785,731.07852 C40.8177004,731.379769 40.8299168,731.687462 40.8299168,731.999988 C40.8299168,732.312514 40.8177004,732.620342 40.7948785,732.921457 L38.3507854,732.921457 L38.3507854,731.07852 Z M38.3507854,733.623029 L40.7197004,733.623029 C40.6282785,734.288892 40.4828894,734.911125 40.294273,735.4661 L38.3507854,735.4661 L38.3507854,733.623029 Z M38.3507854,737.960402 L38.3507854,736.167673 L40.0169196,736.167673 C39.577799,737.125388 38.9942292,737.782525 38.3507854,737.960402 Z M39.8834785,737.70681 C40.2307744,737.297492 40.5359168,736.776213 40.7864209,736.167673 L42.3248866,736.167673 C41.6549963,736.862667 40.8201168,737.3967 39.8834785,737.70681 Z M42.9060401,735.465966 L41.039073,735.465966 C41.2148017,734.902399 41.3477058,734.28312 41.431073,733.622895 L43.7862948,733.622895 C43.5983496,734.291577 43.2979058,734.913004 42.9060401,735.465966 Z M43.9400071,732.921322 L41.4988675,732.921322 C41.51981,732.620476 41.5314894,732.313454 41.5314894,731.999854 C41.5314894,731.686522 41.51981,731.379232 41.4988675,731.078385 L43.9400071,731.078385 C43.9864565,731.378829 44.0106208,731.686522 44.0106208,731.999854 C44.0106208,732.31332 43.9864565,732.620879 43.9400071,732.921322 Z" id="country"></path>
        </g>
    </g>
</svg>
