<?xml version="1.0" encoding="UTF-8"?>
<svg width="14px" height="14px" viewBox="0 0 14 14" version="1.1" xmlns="http://www.w3.org/2000/svg" xmlns:xlink="http://www.w3.org/1999/xlink">
    <!-- Generator: Sketch 43.2 (39069) - http://www.bohemiancoding.com/sketch -->
    <title>Date</title>
    <desc>Created with Sketch.</desc>
    <defs></defs>
    <g id="Form-Editor" stroke="none" stroke-width="1" fill="none" fill-rule="evenodd">
        <g id="home-mockup" transform="translate(-31.000000, -179.000000)" fill="#696969">
            <g id="fields-list" transform="translate(0.000000, 92.000000)">
                <g id="day-field" transform="translate(31.000000, 85.000000)">
                    <path d="M13.6804921,4.29692744 C13.4675557,4.09901234 13.2149649,4.00005479 12.9233391,4.00005479 L11.8464716,4.00005479 L11.8464716,3.25001027 C11.8464716,2.90634375 11.7145997,2.61206011 11.4509593,2.36725524 C11.1872156,2.12245038 10.8704959,2 10.5001807,2 L9.96185025,2 C9.59153506,2 9.27471214,2.12245038 9.01107169,2.36725524 C8.74732797,2.61206011 8.61555937,2.90634375 8.61555937,3.25001027 L8.61555937,4.00005479 L5.38485369,4.00005479 L5.38485369,3.25001027 C5.38485369,2.90634375 5.25298183,2.61206011 4.98934138,2.36725524 C4.72570092,2.12245038 4.40877474,2 4.03856282,2 L3.50012908,2 C3.12991717,2 2.81299098,2.12245038 2.54935052,2.36725524 C2.28571007,2.61206011 2.15383821,2.90634375 2.15383821,3.25001027 L2.15383821,4.00005479 L1.07697074,4.00005479 C0.785241681,4.00005479 0.532857322,4.09901234 0.319714393,4.29692744 C0.106571464,4.49484254 0,4.72929138 0,5.00008219 L0,15.0000685 C0,15.2707634 0.106571464,15.5051164 0.319714393,15.7031274 C0.532857322,15.9010425 0.785241681,16 1.07697074,16 L12.9231325,16 C13.2147583,16 13.4673492,15.9010425 13.6802856,15.7031274 C13.8934285,15.5052123 14,15.2707634 14,15.0000685 L14,5.00008219 C14,4.72919549 13.8935318,4.49484254 13.6804921,4.29692744 L13.6804921,4.29692744 Z M3.50002582,14.9999726 L1.07697074,14.9999726 L1.07697074,12.7499349 L3.50002582,12.7499349 L3.50002582,14.9999726 L3.50002582,14.9999726 Z M3.50002582,12.2499692 L1.07697074,12.2499692 L1.07697074,9.75014041 L3.50002582,9.75014041 L3.50002582,12.2499692 L3.50002582,12.2499692 Z M3.50002582,9.24998288 L1.07697074,9.24998288 L1.07697074,7.0000411 L3.50002582,7.0000411 L3.50002582,9.24998288 L3.50002582,9.24998288 Z M3.31084081,5.67581266 C3.25755508,5.62633389 3.23091222,5.56784154 3.23091222,5.50004794 L3.23091222,3.25010616 C3.23091222,3.18240846 3.25755508,3.12382022 3.31084081,3.07434145 C3.36412655,3.02486267 3.42711937,3.00012329 3.50012908,3.00012329 L4.03856282,3.00012329 C4.11146927,3.00012329 4.17456536,3.02486267 4.22785109,3.07434145 C4.28113682,3.12382022 4.30777969,3.18240846 4.30777969,3.25010616 L4.30777969,5.50004794 C4.30777969,5.56784154 4.28103355,5.62633389 4.22785109,5.67581266 C4.17456536,5.72529143 4.11157253,5.75003082 4.03856282,5.75003082 L3.50012908,5.75003082 C3.42722264,5.75003082 3.36412655,5.72529143 3.31084081,5.67581266 L3.31084081,5.67581266 Z M6.73083477,14.9999726 L4.03845955,14.9999726 L4.03845955,12.7499349 L6.73083477,12.7499349 L6.73083477,14.9999726 L6.73083477,14.9999726 Z M6.73083477,12.2499692 L4.03845955,12.2499692 L4.03845955,9.75014041 L6.73083477,9.75014041 L6.73083477,12.2499692 L6.73083477,12.2499692 Z M6.73083477,9.24998288 L4.03845955,9.24998288 L4.03845955,7.0000411 L6.73083477,7.0000411 L6.73083477,9.24998288 L6.73083477,9.24998288 Z M9.96174698,14.9999726 L7.26937177,14.9999726 L7.26937177,12.7499349 L9.96174698,12.7499349 L9.96174698,14.9999726 L9.96174698,14.9999726 Z M9.96174698,12.2499692 L7.26937177,12.2499692 L7.26937177,9.75014041 L9.96174698,9.75014041 L9.96174698,12.2499692 L9.96174698,12.2499692 Z M9.96174698,9.24998288 L7.26937177,9.24998288 L7.26937177,7.0000411 L9.96174698,7.0000411 L9.96174698,9.24998288 L9.96174698,9.24998288 Z M9.77235544,5.67581266 C9.71917298,5.62633389 9.69263338,5.56784154 9.69263338,5.50004794 L9.69263338,3.25010616 C9.69263338,3.18240846 9.71917298,3.12382022 9.77235544,3.07434145 C9.82564118,3.02486267 9.88873727,3.00012329 9.96174698,3.00012329 L10.5000775,3.00012329 C10.5730872,3.00012329 10.6361833,3.02486267 10.689469,3.07434145 C10.7427547,3.12382022 10.7692943,3.18240846 10.7692943,3.25010616 L10.7692943,5.50004794 C10.7692943,5.56784154 10.7426515,5.62633389 10.689469,5.67581266 C10.6362865,5.72529143 10.5730872,5.75003082 10.5000775,5.75003082 L9.96174698,5.75003082 C9.88873727,5.75003082 9.82553791,5.72529143 9.77235544,5.67581266 L9.77235544,5.67581266 Z M12.9231325,14.9999726 L10.4999742,14.9999726 L10.4999742,12.7499349 L12.9231325,12.7499349 L12.9231325,14.9999726 L12.9231325,14.9999726 Z M12.9231325,12.2499692 L10.4999742,12.2499692 L10.4999742,9.75014041 L12.9231325,9.75014041 L12.9231325,12.2499692 L12.9231325,12.2499692 Z M12.9231325,9.24998288 L10.4999742,9.24998288 L10.4999742,7.0000411 L12.9231325,7.0000411 L12.9231325,9.24998288 L12.9231325,9.24998288 Z" id="date"></path>
                </g>
            </g>
        </g>
    </g>
</svg>
