<?xml version="1.0" encoding="UTF-8"?>
<svg width="14px" height="14px" viewBox="0 0 14 14" version="1.1" xmlns="http://www.w3.org/2000/svg" xmlns:xlink="http://www.w3.org/1999/xlink">
    <!-- Generator: Sketch 43.2 (39069) - http://www.bohemiancoding.com/sketch -->
    <title>email</title>
    <desc>Created with Sketch.</desc>
    <defs></defs>
    <g id="Form-Editor" stroke="none" stroke-width="1" fill="none" fill-rule="evenodd">
        <g id="home-mockup" transform="translate(-29.000000, -893.000000)" fill-rule="nonzero" fill="#696969">
            <g id="fields-list" transform="translate(0.000000, 92.000000)">
                <g id="date-field" transform="translate(29.000000, 797.000000)">
                    <path d="M7.03285083,4 L7.00003851,4 C5.13783418,3.99997954 3.35237588,4.74197586 2.03868114,6.06182853 C0.724986411,7.38168121 -0.00865206958,9.17058995 7.70133003e-05,11.0327738 C0.017576917,14.8740027 3.23974669,17.999923 7.18160001,17.999923 L7.4375361,17.999923 C7.9207826,17.999923 8.31253129,17.6081743 8.31253129,17.1249278 C8.31253129,16.6416813 7.9207826,16.2499326 7.4375361,16.2499326 L7.18160001,16.2499326 C4.20005391,16.2499326 1.76319231,13.9049455 1.75006739,11.0240239 C1.7436665,9.6274805 2.29395983,8.28593982 3.27921503,7.29616887 C4.26447022,6.30639793 5.60348048,5.7499757 7.00003851,5.74999037 L7.02410087,5.74999037 C9.90502253,5.7631153 12.2500096,8.1999769 12.2500096,11.181523 L12.2500096,13.1874495 C12.2500096,13.670696 11.8582609,14.0624446 11.3750144,14.0624446 C10.8917679,14.0624446 10.5000193,13.670696 10.5000193,13.1874495 L10.5000193,10.9999615 C10.5054343,9.39661025 9.42394548,7.99328504 7.87212202,7.59003762 C6.32029856,7.18679019 4.69243698,7.88608007 3.91659979,9.28923408 C3.1407626,10.6923881 3.41407913,12.4428845 4.5807285,13.5427453 C5.74737787,14.6426061 7.51093087,14.8123721 8.86596574,13.9552577 C9.24757166,15.1963076 10.4791591,15.971915 11.7632727,15.7798725 C13.0473862,15.5878299 13.9981744,14.4858425 14,13.1874495 L14,11.181523 C14,7.23966968 10.8740797,4.0174999 7.03285083,4 Z M7.00003851,12.7499519 C6.03354551,12.7499519 5.25004813,11.9664545 5.25004813,10.9999615 C5.25004813,10.0334685 6.03354551,9.24997112 7.00003851,9.24997112 C7.9665315,9.24997112 8.75002888,10.0334685 8.75002888,10.9999615 C8.75002888,11.9664545 7.9665315,12.7499519 7.00003851,12.7499519 Z" id="email"></path>
                </g>
            </g>
        </g>
    </g>
</svg>
