<?xml version="1.0" encoding="UTF-8"?>
<svg width="15px" height="15px" viewBox="0 0 15 15" version="1.1" xmlns="http://www.w3.org/2000/svg" xmlns:xlink="http://www.w3.org/1999/xlink">
    <!-- Generator: Sketch 43.2 (39069) - http://www.bohemiancoding.com/sketch -->
    <title>image</title>
    <desc>Created with Sketch.</desc>
    <defs></defs>
    <g id="Form-Editor" stroke="none" stroke-width="1" fill="none" fill-rule="evenodd">
        <g id="home-mockup" transform="translate(-27.000000, -916.000000)" fill-rule="nonzero" fill="#696969">
            <path d="M27.5,916.5 L27.5,930.5 L41.5,930.5 L41.5,916.5 L27.5,916.5 Z M40.2768421,917.723158 L40.2768421,922.822105 L37.5652632,919.889474 L33.3947368,924.708421 L31.4494737,922.836842 L28.7231579,925.415789 L28.7231579,917.723158 L40.2768421,917.723158 Z M28.7231579,929.276842 L28.7231579,927.095789 L31.4494737,924.516842 L33.4831579,926.462105 L37.5947368,921.702105 L40.2768421,924.605263 L40.2768421,929.262105 L28.7231579,929.262105 L28.7231579,929.276842 Z M31.0663158,921.348421 C30.3826454,921.348421 29.8284211,920.794197 29.8284211,920.110526 C29.8284211,919.426856 30.3826454,918.872632 31.0663158,918.872632 C31.7499862,918.872632 32.3042105,919.426856 32.3042105,920.110526 C32.3042105,920.794197 31.7499862,921.348421 31.0663158,921.348421 Z" id="image"></path>
        </g>
    </g>
</svg>
