<?xml version="1.0" encoding="UTF-8"?>
<svg width="14px" height="16px" viewBox="0 0 14 16" version="1.1" xmlns="http://www.w3.org/2000/svg" xmlns:xlink="http://www.w3.org/1999/xlink">
    <!-- Generator: Sketch 43.2 (39069) - http://www.bohemiancoding.com/sketch -->
    <title>Number</title>
    <desc>Created with Sketch.</desc>
    <defs></defs>
    <g id="Form-Editor" stroke="none" stroke-width="1" fill="none" fill-rule="evenodd">
        <g id="home-mockup" transform="translate(-31.000000, -809.000000)" fill-rule="nonzero" fill="#696969">
            <g id="fields-list" transform="translate(0.000000, 92.000000)">
                <g id="text-field" transform="translate(31.000000, 714.000000)">
                    <path d="M14,9 L14,7 L11.49808,7 L11.99808,3 L9.99808,3 L9.49808,7 L5.49904,7 L5.99904,3 L3.99904,3 L3.49904,7 L0,7 L0,9 L3.24912,9 L2.75008,13 L0,13 L0,15 L2.5,15 L2,19 L4,19 L4.5,15 L8.5,15 L7.99904,19 L10,19 L10.5,15 L14,15 L14,13 L10.75008,13 L11.24816,9 L14,9 Z M8.75008,13 L4.75008,13 L5.24912,9 L9.24816,9 L8.75008,13 Z" id="number"></path>
                </g>
            </g>
        </g>
    </g>
</svg>
