<?xml version="1.0" encoding="UTF-8"?>
<svg width="14px" height="14px" viewBox="0 0 14 14" version="1.1" xmlns="http://www.w3.org/2000/svg" xmlns:xlink="http://www.w3.org/1999/xlink">
    <!-- Generator: Sketch 43.2 (39069) - http://www.bohemiancoding.com/sketch -->
    <title>object</title>
    <desc>Created with Sketch.</desc>
    <defs></defs>
    <g id="Form-Editor" stroke="none" stroke-width="1" fill="none" fill-rule="evenodd">
        <g id="home-mockup" transform="translate(-31.000000, -473.000000)" fill-rule="nonzero" fill="#696969">
            <path d="M36.0047492,473.00875 L35.5071179,473 C33.412327,473 32.3649316,473.76125 32.3649316,475.28375 L32.3649316,478.18 C32.3649316,478.804167 32.01422,479.16 31.3127968,479.2475 L31,479.34375 L31,480.6125 L31.1279623,480.63 C31.1658771,480.635833 31.1943132,480.641667 31.2132706,480.6475 C31.260664,480.653333 31.2938394,480.659167 31.3127968,480.665 C31.7014232,480.723333 31.9763052,480.834167 32.137443,480.9975 C32.2891021,481.166667 32.3649316,481.435 32.3649316,481.8025 L32.3649316,484.515 C32.3649316,485.3725 32.6255956,486.0025 33.1469237,486.405 C33.6777304,486.801667 34.5071159,486.997083 35.6350802,486.99125 L36.4028543,486.99125 L36.4028543,485.7575 L35.8056967,485.7575 C35.2654113,485.7575 34.9146997,485.702083 34.7535619,485.59125 C34.6019028,485.480417 34.5260733,485.217917 34.5260733,484.80375 L34.5118553,481.75875 C34.5118553,481.33875 34.4360257,481.009167 34.2843667,480.77 C34.1421863,480.536667 33.8625649,480.28875 33.4455025,480.02625 L33.9431338,479.71125 L34.2701486,479.335 L34.4692012,478.87125 L34.5118553,475.52875 C34.5118553,474.98625 34.5829455,474.647917 34.7251258,474.51375 C34.8673062,474.367917 35.2180178,474.295 35.7772606,474.295 L36.4028543,474.295 L36.4028543,473.07875 C36.317546,473.032083 36.1848444,473.00875 36.0047492,473.00875 L36.0047492,473.00875 Z M45,480.665 L45,479.39625 L44.8862557,479.37875 C44.8483409,479.372917 44.8199049,479.367083 44.8009475,479.36125 C44.753554,479.355417 44.7203786,479.349583 44.7014212,479.34375 C44.2938375,479.285417 44.0142161,479.174583 43.862557,479.01125 C43.7108979,478.847917 43.6350684,478.579583 43.6350684,478.20625 L43.6350684,475.485 C43.6350684,474.6275 43.3744044,474.000417 42.8530763,473.60375 C42.3317483,473.20125 41.5071021,473.005833 40.3791378,473.0175 L39.5971457,473.0175 L39.5971457,474.2425 L40.2085213,474.2425 C40.7488068,474.2425 41.094779,474.30375 41.2464381,474.42625 C41.3980972,474.53125 41.4739267,474.787917 41.4739267,475.19625 L41.5023628,478.25 C41.5023628,478.640833 41.573453,478.970417 41.7156333,479.23875 C41.8767711,479.472083 42.1611318,479.722917 42.5687156,479.99125 C42.1611318,480.20125 41.8815104,480.431667 41.7298514,480.6825 C41.5781923,480.915833 41.5023628,481.26 41.5023628,481.715 L41.5023628,484.48 C41.5023628,485.0225 41.4265332,485.360833 41.2748742,485.495 C41.1232151,485.635 40.7725035,485.705 40.2227394,485.705 L39.5971457,485.705 L39.5971457,486.93 C39.6919327,486.970833 39.819895,486.99125 39.9810327,486.99125 L40.4786641,487 C42.5829336,487 43.6350684,486.23875 43.6350684,484.71625 L43.6350684,481.82875 C43.6350684,481.204583 43.9905193,480.851667 44.7014212,480.77 L45,480.665 Z" id="object"></path>
        </g>
    </g>
</svg>
