<?xml version="1.0" encoding="UTF-8"?>
<svg width="14px" height="14px" viewBox="0 0 14 14" version="1.1" xmlns="http://www.w3.org/2000/svg" xmlns:xlink="http://www.w3.org/1999/xlink">
    <!-- Generator: Sketch 43.2 (39069) - http://www.bohemiancoding.com/sketch -->
    <title>qrcode</title>
    <desc>Created with Sketch.</desc>
    <defs></defs>
    <g id="Form-Editor" stroke="none" stroke-width="1" fill="none" fill-rule="evenodd">
        <g id="home-mockup" transform="translate(-29.000000, -203.000000)" fill-rule="nonzero" fill="#696969">
            <path d="M30.0769231,215.923077 L34.3846154,215.923077 L30.0769231,215.923077 L30.0769231,215.923077 Z M31.1538462,212.692308 L33.3076923,212.692308 L33.3076923,214.846154 L31.1538462,214.846154 L31.1538462,212.692308 L31.1538462,212.692308 L31.1538462,212.692308 Z M36.5387452,210.538462 L37.6156683,210.538462 L37.6156683,214.846154 L36.5387452,214.846154 L36.5387452,210.538462 L36.5387452,210.538462 L36.5387452,210.538462 Z M29,217 L35.4612548,217 L35.4612548,210.538462 L29,210.538462 L29,217 L29,217 L29,217 Z M30.0769231,215.923077 L30.0769231,211.615385 L34.3846154,211.615385 L34.3846154,215.923077 L30.0769231,215.923077 L30.0769231,215.923077 L30.0769231,215.923077 Z M36.5387452,215.923077 L38.6925914,215.923077 L38.6925914,217 L36.5384615,217 L36.5387452,215.923077 L36.5387452,215.923077 L36.5387452,215.923077 Z M41.9230769,212.692308 L43,212.692308 L43,213.769231 L41.9230769,213.769231 L41.9230769,212.692308 L41.9230769,212.692308 L41.9230769,212.692308 Z M39.7692308,210.538462 L43,210.538462 L43,211.615385 L39.7692308,211.615385 L39.7692308,210.538462 L39.7692308,210.538462 Z M38.6923077,205.153846 L40.8461538,205.153846 L40.8461538,207.307692 L38.6923077,207.307692 L38.6923077,205.153846 L38.6923077,205.153846 Z M43,203 L36.5384615,203 L36.5384615,209.461538 L43,209.461538 L43,203 L43,203 L43,203 Z M41.9230769,208.384615 L37.6153846,208.384615 L37.6153846,204.076923 L41.9233606,204.076923 L41.9233606,208.384615 L41.9230769,208.384615 Z M29,209.461538 L35.4612548,209.461538 L35.4612548,203 L29,203 L29,209.461538 L29,209.461538 Z M30.0769231,204.076923 L34.3846154,204.076923 L34.3846154,208.384615 L30.0769231,208.384615 L30.0769231,204.076923 L30.0769231,204.076923 Z M41.9230769,215.923077 L39.7692308,215.923077 L39.7692308,217 L43,217 L43,214.846154 L41.9230769,214.846154 L41.9230769,215.923077 L41.9230769,215.923077 L41.9230769,215.923077 Z M38.6923077,212.692308 L38.6923077,214.846154 L40.8461538,214.846154 L40.8461538,213.769231 L39.7692308,213.769231 L39.7692308,212.692308 L38.6923077,212.692308 L38.6923077,212.692308 L38.6923077,212.692308 Z M31.1538462,205.153846 L33.3076923,205.153846 L33.3076923,207.307692 L31.1538462,207.307692 L31.1538462,205.153846 L31.1538462,205.153846 L31.1538462,205.153846 Z" id="qrcode"></path>
        </g>
    </g>
</svg>
