<?xml version="1.0" encoding="UTF-8"?>
<svg width="14px" height="13px" viewBox="0 0 14 13" version="1.1" xmlns="http://www.w3.org/2000/svg" xmlns:xlink="http://www.w3.org/1999/xlink">
    <!-- Generator: Sketch 43.2 (39069) - http://www.bohemiancoding.com/sketch -->
    <title>signature</title>
    <desc>Created with Sketch.</desc>
    <defs></defs>
    <g id="Form-Editor" stroke="none" stroke-width="1" fill="none" fill-rule="evenodd">
        <g id="home-mockup" transform="translate(-31.000000, -246.000000)" fill-rule="nonzero" fill="#696969">
            <path d="M43.719502,248.38448 C43.5676794,248.232502 43.3212787,248.232502 43.1696116,248.38448 L41.8889191,249.665173 L41.8889191,248.72223 C41.8889191,248.524674 41.7305631,248.402873 41.603785,248.276095 C41.4077845,248.080095 40.1191587,246.791469 39.6708463,246.343157 C39.5316237,246.203934 39.38229,246 39.1666894,246 L31.38889,246 C31.1740672,246 31,246.174067 31,246.38889 L31,258.381752 C31,258.596575 31.1740672,258.770642 31.38889,258.770642 L41.5000292,258.770642 C41.714852,258.770642 41.8889191,258.596575 41.8889191,258.381752 L41.8889191,253.098293 L43.444479,251.542733 L43.672213,251.770623 L42.3916761,253.05116 C42.2396979,253.202982 42.2396979,253.449228 42.3916761,253.60105 C42.4675874,253.677117 42.5671432,253.715073 42.6666991,253.715073 C42.7662549,253.715073 42.8658107,253.677117 42.9417221,253.601206 L44.4972819,252.045646 C44.6492601,251.893823 44.6492601,251.647578 44.4972819,251.495756 L43.9943694,250.992843 L44.8860164,250.101196 C45.0379945,249.949373 45.0379945,249.703128 44.8860164,249.551306 L43.719502,248.38448 Z M39.5555793,247.327826 L40.5610932,248.33334 L39.5555793,248.33334 L39.5555793,247.327826 Z M41.1111392,258.002456 L31.7777799,258.002456 L31.7777799,246.77778 L38.7777994,246.77778 L38.7777994,248.72223 C38.7777994,248.937053 38.9518665,249.11112 39.1666894,249.11112 L41.1111392,249.11112 L41.1111392,250.452547 L37.3361065,254.227424 C37.286173,254.277202 37.2508618,254.339735 37.2337506,254.408024 L36.9185942,255.669117 L36.4444596,255.669117 C36.2301034,255.669117 36.0555696,255.494583 36.0555696,255.280227 C36.0555696,255.065404 35.8815024,254.891337 35.6666796,254.891337 C35.4518568,254.891337 35.2777897,255.065404 35.2777897,255.280227 C35.2777897,255.494583 35.1032558,255.669117 34.8888997,255.669117 C34.6745435,255.669117 34.5000097,255.494583 34.5000097,255.280227 L34.5000097,254.502447 C34.5000097,254.287624 34.3259426,254.113557 34.1111198,254.113557 C33.8962969,254.113557 33.7222298,254.287624 33.7222298,254.502447 L33.7222298,255.280227 C33.7222298,255.494583 33.547696,255.669117 33.3333398,255.669117 C33.118517,255.669117 32.9444498,255.843184 32.9444498,256.058007 C32.9444498,256.272829 33.118517,256.446897 33.3333398,256.446897 C33.6318518,256.446897 33.9045414,256.334119 34.1111198,256.149007 C34.3176981,256.334119 34.5903878,256.446897 34.8888997,256.446897 C35.1874116,256.446897 35.4601013,256.334119 35.6666796,256.149007 C35.873258,256.334119 36.1459476,256.446897 36.4444596,256.446897 L37.2222395,256.446897 C37.2525729,256.446897 37.2816619,256.442697 37.3099731,256.436008 C37.3121509,256.435541 37.3143287,256.435697 37.3165064,256.43523 L38.8720663,256.04634 C38.9403554,256.029229 39.0028889,255.993918 39.0526668,255.943984 L41.1111392,253.885667 L41.1111392,258.002456 Z M38.586605,255.348789 L37.7643361,255.554278 L37.9698255,254.732009 L42.2854153,250.41642 L42.9020392,251.033199 L38.586605,255.348789 Z M43.4444012,250.539727 L42.8276217,249.922947 L43.4444012,249.306324 L44.0610252,249.922947 L43.4444012,250.539727 Z M33.7222298,249.11112 C33.507407,249.11112 33.3333398,248.937053 33.3333398,248.72223 C33.3333398,248.507407 33.507407,248.33334 33.7222298,248.33334 L36.0555696,248.33334 C36.2703924,248.33334 36.4444596,248.507407 36.4444596,248.72223 C36.4444596,248.937053 36.2703924,249.11112 36.0555696,249.11112 L33.7222298,249.11112 Z M33.7222298,250.66668 C33.507407,250.66668 33.3333398,250.492612 33.3333398,250.27779 C33.3333398,250.062967 33.507407,249.8889 33.7222298,249.8889 L39.1666894,249.8889 C39.3815122,249.8889 39.5555793,250.062967 39.5555793,250.27779 C39.5555793,250.492612 39.3815122,250.66668 39.1666894,250.66668 L33.7222298,250.66668 Z M33.7225076,252.280017 C33.5075313,252.280017 33.3333398,252.105453 33.3333398,251.890016 C33.3333398,251.67458 33.5075313,251.500015 33.7225076,251.500015 L37.6141851,251.500015 C37.8291614,251.500015 38.0033529,251.67458 38.0033529,251.890016 C38.0033529,252.105453 37.8291614,252.280017 37.6141851,252.280017 L33.7225076,252.280017 Z" id="signature"></path>
        </g>
    </g>
</svg>
