<?xml version="1.0" encoding="UTF-8"?>
<svg width="14px" height="13px" viewBox="0 0 14 13" version="1.1" xmlns="http://www.w3.org/2000/svg" xmlns:xlink="http://www.w3.org/1999/xlink">
    <!-- Generator: Sketch 43.2 (39069) - http://www.bohemiancoding.com/sketch -->
    <title>String</title>
    <desc>Created with Sketch.</desc>
    <defs></defs>
    <g id="Form-Editor" stroke="none" stroke-width="1" fill="none" fill-rule="evenodd">
        <g id="home-mockup" transform="translate(-31.000000, -432.000000)" fill="#696969">
            <g id="fields-list" transform="translate(0.000000, 92.000000)">
                <g id="family-name-field" transform="translate(31.000000, 338.000000)">
                    <path d="M13.9496057,14.2248416 C13.635571,14.107014 13.3467334,14.0314226 13.083093,13.9977576 C12.8194525,13.9751422 12.6258271,13.9108069 12.5024231,13.8042354 C12.4295166,13.759211 12.3313098,13.5994571 12.2079058,13.3245606 C11.9778271,12.8646097 11.7956643,12.4466885 11.6611075,12.0709001 C11.4422849,11.4762892 11.2598122,11.0163383 11.1139993,10.6910475 C10.7943882,9.94504724 10.5251713,9.28599774 10.3065552,8.71389899 C10.1886244,8.40544069 9.84102795,7.57248969 9.26314625,6.21504599 L7.53848537,2.17668971 L7.44595821,2 L7.00005163,2 L6.36898747,2 L4.01326242,8.09130271 L2.01928141,13.274063 C1.86221242,13.5656888 1.72755235,13.7565261 1.61540447,13.8462651 C1.49768018,13.9302211 1.18911862,14.0172751 0.689926312,14.1069108 C0.364532238,14.1687677 0.140236481,14.2191619 0.0168325084,14.2584033 L0,14.9232358 L0.176689705,14.9232358 C0.659049502,14.9232358 1.12746826,14.8839944 1.58173946,14.8055115 L1.98561639,14.7382847 C3.57303553,14.8504326 4.55179943,14.9065066 4.92190808,14.9065066 C4.93316417,14.8504326 4.93874059,14.774738 4.93874059,14.6794226 C4.93874059,14.5110975 4.93595238,14.3484521 4.9302727,14.1913831 C4.81254841,14.1745506 4.69895479,14.1577181 4.58959512,14.1408856 C4.48023545,14.1240531 4.39607291,14.1100088 4.33721076,14.098856 C4.27834861,14.0878064 4.24044965,14.0821267 4.22361715,14.0821267 C3.79165161,14.0203731 3.50281402,13.9306341 3.35700113,13.8129098 C3.26168576,13.7456831 3.21397644,13.6250673 3.21397644,13.4510625 C3.21397644,13.3389147 3.27851827,13.1034661 3.40749865,12.7443037 C3.8282081,11.5721209 4.11983389,10.8036084 4.28247929,10.4391795 L8.06865775,10.4559087 L8.84274661,12.3741951 L9.23805239,13.333235 C9.2717174,13.4286536 9.28844664,13.5183926 9.28844664,13.6024519 C9.28844664,13.6865111 9.25488489,13.762309 9.18755486,13.8295358 C9.12022483,13.885713 8.92959409,13.9501516 8.61535284,14.0229548 L7.51308171,14.2585066 C7.49056952,14.4436642 7.47962322,14.6623835 7.47962322,14.9147679 L7.96755943,14.8979354 L9.65029394,14.8054082 C9.96432865,14.7942554 10.3431117,14.7884725 10.7862301,14.7884725 C11.3244573,14.7884725 11.8545264,14.8109847 12.3763342,14.8558025 C13.0044036,14.9006203 13.5429406,14.9230293 13.9917386,14.9230293 C13.9974183,14.8558025 14,14.782896 14,14.7043099 C14,14.6034181 13.9832708,14.4436642 13.9496057,14.2248416 L13.9496057,14.2248416 Z M7.4038253,9.44585494 C7.32534244,9.44585494 7.17808381,9.4444092 6.96215267,9.441621 C6.74622154,9.43903932 6.41256611,9.43480538 5.96097986,9.4291257 C5.50949687,9.42344602 5.07897707,9.41797287 4.66952372,9.41229319 L6.0997706,5.626218 C6.31859321,6.06933636 6.57655398,6.66105583 6.87375619,7.40147967 C7.21040636,8.22038637 7.46836713,8.89626838 7.64794831,9.4291257 L7.4038253,9.44585494 L7.4038253,9.44585494 Z" id="string"></path>
                </g>
            </g>
        </g>
    </g>
</svg>
