<?xml version="1.0" encoding="UTF-8"?>
<svg width="14px" height="14px" viewBox="0 0 14 14" version="1.1" xmlns="http://www.w3.org/2000/svg" xmlns:xlink="http://www.w3.org/1999/xlink">
    <!-- Generator: Sketch 43.2 (39069) - http://www.bohemiancoding.com/sketch -->
    <title>url</title>
    <desc>Created with Sketch.</desc>
    <defs></defs>
    <g id="Form-Editor" stroke="none" stroke-width="1" fill="none" fill-rule="evenodd">
        <g id="home-mockup" transform="translate(-30.000000, -849.000000)" fill-rule="nonzero" fill="#696969">
            <path d="M33.2605263,857.528947 L31.1421053,855.392105 C29.7052632,853.955263 29.7052632,851.597368 31.1421053,850.142105 C32.5973684,848.686842 34.9552632,848.686842 36.4105263,850.142105 L37.0921053,850.823684 C37.3868421,851.118421 37.3868421,851.578947 37.0921053,851.873684 C36.7973684,852.168421 36.3368421,852.168421 36.0421053,851.873684 L35.3605263,851.192105 C34.4947368,850.326316 33.0763158,850.326316 32.1921053,851.192105 C31.3078947,852.076316 31.3078947,853.494737 32.1921053,854.378947 L34.3105263,856.478947 C34.7342105,856.902632 35.2868421,857.142105 35.8947368,857.142105 C36.4842105,857.142105 37.0552632,856.902632 37.4789474,856.478947 L38.2526316,855.705263 C38.5473684,855.410526 39.0078947,855.410526 39.3026316,855.705263 C39.5973684,856 39.5973684,856.460526 39.3026316,856.755263 L38.5289474,857.528947 C37.8289474,858.228947 36.8894737,858.615789 35.8947368,858.615789 C34.9,858.615789 33.9605263,858.228947 33.2605263,857.528947 Z M34.6973684,854.526316 L35.4710526,853.734211 C36.1710526,853.034211 37.1105263,852.647368 38.1052632,852.647368 C39.1,852.647368 40.0394737,853.034211 40.7394737,853.734211 L42.8394737,855.889474 C44.2947368,857.344737 44.2947368,859.702632 42.8394737,861.157895 C42.1026316,861.876316 41.1631579,862.244737 40.2052632,862.244737 C39.2473684,862.244737 38.2894737,861.876316 37.5710526,861.157895 L36.8894737,860.476316 C36.5947368,860.181579 36.5947368,859.721053 36.8894737,859.426316 C37.1842105,859.131579 37.6447368,859.131579 37.9394737,859.426316 L38.6210526,860.107895 C39.5052632,860.992105 40.9236842,860.992105 41.8078947,860.107895 C42.6921053,859.223684 42.6921053,857.805263 41.8078947,856.921053 L39.6894737,854.802632 C39.2657895,854.378947 38.6947368,854.139474 38.1052632,854.139474 C37.5157895,854.139474 36.9447368,854.378947 36.5210526,854.802632 L35.7473684,855.576316 C35.4526316,855.871053 34.9921053,855.871053 34.6973684,855.576316 C34.4026316,855.281579 34.4026316,854.821053 34.6973684,854.526316 Z" id="url"></path>
        </g>
    </g>
</svg>
